<svg width="3752" height="630" viewBox="0 0 3752 630" fill="none" xmlns="http://www.w3.org/2000/svg">
<path d="M468.982 256.854L308.982 533.982L31.854 373.982L191.854 96.8539L468.982 256.854ZM86.4946 359.34L294.34 479.34L414.34 271.495L206.495 151.495L86.4946 359.34ZM282.854 392.854H162.854V272.854H282.854V392.854Z" fill="#BF84FE"/>
<path d="M905.55 234.2C972.15 234.2 1008.15 283.7 1008.15 344.9V461H963.6V352.1C963.6 312.05 943.8 276.95 902.4 276.95C862.35 276.95 842.1 310.7 842.1 351.2V461H797.55V351.2C797.55 310.7 777.3 276.95 736.35 276.95C694.95 276.95 676.5 312.05 676.5 352.1V461H631.95V345.35C631.95 283.7 667.05 234.2 733.2 234.2C777.3 234.2 809.25 256.7 820.5 290.9C832.65 256.7 863.7 234.2 905.55 234.2ZM1102.89 196.85C1086.69 196.85 1073.64 183.8 1073.64 167.6C1073.64 151.4 1086.69 137.9 1102.89 137.9C1119.09 137.9 1131.69 151.4 1131.69 167.6C1131.69 183.8 1119.09 196.85 1102.89 196.85ZM1080.84 240.5H1125.39V461H1080.84V240.5ZM1299.22 465.95C1235.77 466.85 1184.02 414.2 1184.02 350.3C1184.02 286.85 1235.77 234.65 1299.22 235.1C1339.72 235.1 1377.07 253.55 1397.32 293.15L1360.42 313.85C1347.37 290 1325.32 277.4 1299.22 277.4C1260.52 277.4 1228.57 310.25 1228.57 350.3C1228.57 390.8 1260.52 424.1 1299.22 424.1C1325.32 424.1 1347.37 411.5 1360.42 387.65L1397.32 407.9C1377.07 447.95 1339.72 465.95 1299.22 465.95ZM1487.29 461H1442.74V329.6C1442.74 276.05 1473.34 236 1530.94 236C1544.89 236 1559.29 238.7 1570.54 244.1V288.2C1559.74 281.9 1547.14 278.75 1534.99 278.75C1505.29 278.75 1487.29 299 1487.29 331.4V461ZM1707.09 466.4C1640.49 466.4 1589.19 414.2 1589.19 350.3C1589.19 286.85 1640.94 235.1 1707.09 235.1C1773.69 235.1 1824.09 287.3 1824.09 350.3C1824.09 414.2 1773.24 466.4 1707.09 466.4ZM1707.09 424.1C1748.04 424.1 1779.54 390.8 1779.54 350.75C1779.54 310.25 1748.04 276.95 1707.09 276.95C1665.69 276.95 1633.74 310.25 1633.74 350.75C1633.74 390.8 1665.69 424.1 1707.09 424.1Z" fill="white"/>
<path d="M1953.04 465.95C1912.09 465.95 1880.59 449.75 1863.49 416.9L1897.69 398C1908.94 420.05 1926.94 428.15 1951.24 428.15C1976.44 428.15 1995.79 417.8 1995.79 398.45C1995.79 352.1 1869.34 387.2 1869.34 303.05C1869.34 264.35 1903.54 236 1951.69 236C1992.64 236 2020.54 254.9 2034.49 280.55L2000.29 299.9C1990.84 280.55 1972.84 273.8 1952.59 273.8C1931.89 273.8 1913.89 284.6 1913.89 302.15C1913.89 347.15 2040.34 314.3 2040.34 397.55C2040.34 439.4 1999.84 465.95 1953.04 465.95ZM2190.76 466.4C2126.86 466.4 2080.06 414.2 2080.06 350.3C2080.06 287.3 2130.46 235.1 2197.51 235.1C2264.11 235.1 2314.96 284.6 2314.96 350.3V461H2272.66V422.3C2256.01 449.3 2226.76 466.4 2190.76 466.4ZM2197.51 424.1C2238.91 424.1 2270.41 390.8 2270.41 350.75C2270.41 310.25 2238.91 276.95 2197.51 276.95C2156.56 276.95 2124.61 310.25 2124.61 350.75C2124.61 390.8 2156.56 424.1 2197.51 424.1ZM2488.13 277.85C2444.93 277.85 2423.33 313.4 2423.33 354.35V461H2378.78V349.85C2378.78 285.5 2417.03 235.1 2488.13 235.1C2560.13 235.1 2599.28 285.5 2599.28 349.4V461H2554.73V354.8C2554.73 313.4 2532.23 277.85 2488.13 277.85ZM2766.6 466.4C2699.55 466.4 2649.15 414.65 2649.15 351.2C2649.15 284.15 2697.75 235.1 2764.35 235.1C2794.05 235.1 2821.05 248.15 2839.05 267.95L2839.5 139.25H2884.05V351.2C2884.05 416.45 2833.2 466.4 2766.6 466.4ZM2766.6 424.55C2808 424.55 2839.5 391.25 2839.5 350.75C2839.5 310.7 2808 277.4 2766.6 277.4C2725.65 277.4 2693.7 310.7 2693.7 350.75C2693.7 391.25 2725.65 424.55 2766.6 424.55ZM3065.32 466.4C2998.72 466.4 2947.87 416.45 2947.87 351.2V139.25H2992.42V267.95C3010.42 248.15 3037.42 235.1 3067.12 235.1C3134.17 235.1 3182.32 284.15 3182.32 351.2C3182.32 414.65 3131.92 466.4 3065.32 466.4ZM3065.32 424.55C3106.27 424.55 3137.77 391.25 3137.77 350.75C3137.77 310.7 3106.27 277.4 3065.32 277.4C3023.92 277.4 2992.42 310.7 2992.42 350.75C2992.42 391.25 3023.92 424.55 3065.32 424.55ZM3336.58 466.4C3269.98 466.4 3218.68 414.2 3218.68 350.3C3218.68 286.85 3270.43 235.1 3336.58 235.1C3403.18 235.1 3453.58 287.3 3453.58 350.3C3453.58 414.2 3402.73 466.4 3336.58 466.4ZM3336.58 424.1C3377.53 424.1 3409.03 390.8 3409.03 350.75C3409.03 310.25 3377.53 276.95 3336.58 276.95C3295.18 276.95 3263.23 310.25 3263.23 350.75C3263.23 390.8 3295.18 424.1 3336.58 424.1ZM3541.29 461H3490.89L3546.69 377.3C3553.44 367.4 3556.59 358.85 3556.59 350.75C3556.59 343.1 3553.89 335.45 3547.59 326L3490.89 240.5H3541.29L3586.29 307.55C3590.79 314.3 3594.39 321.95 3596.19 329.6H3620.04C3622.29 321.95 3625.44 314.3 3629.94 307.55L3674.49 240.5H3725.34L3668.64 326C3662.34 335.45 3659.64 343.1 3659.64 350.75C3659.64 358.85 3662.79 367.4 3669.54 377.3L3725.34 461H3674.94L3629.94 394.4C3624.99 386.75 3621.39 378.65 3619.14 370.1H3597.09C3594.84 378.65 3591.24 386.75 3586.29 394.4L3541.29 461Z" fill="black"/>
<path d="M1953.04 465.95C1912.09 465.95 1880.59 449.75 1863.49 416.9L1897.69 398C1908.94 420.05 1926.94 428.15 1951.24 428.15C1976.44 428.15 1995.79 417.8 1995.79 398.45C1995.79 352.1 1869.34 387.2 1869.34 303.05C1869.34 264.35 1903.54 236 1951.69 236C1992.64 236 2020.54 254.9 2034.49 280.55L2000.29 299.9C1990.84 280.55 1972.84 273.8 1952.59 273.8C1931.89 273.8 1913.89 284.6 1913.89 302.15C1913.89 347.15 2040.34 314.3 2040.34 397.55C2040.34 439.4 1999.84 465.95 1953.04 465.95ZM2190.76 466.4C2126.86 466.4 2080.06 414.2 2080.06 350.3C2080.06 287.3 2130.46 235.1 2197.51 235.1C2264.11 235.1 2314.96 284.6 2314.96 350.3V461H2272.66V422.3C2256.01 449.3 2226.76 466.4 2190.76 466.4ZM2197.51 424.1C2238.91 424.1 2270.41 390.8 2270.41 350.75C2270.41 310.25 2238.91 276.95 2197.51 276.95C2156.56 276.95 2124.61 310.25 2124.61 350.75C2124.61 390.8 2156.56 424.1 2197.51 424.1ZM2488.13 277.85C2444.93 277.85 2423.33 313.4 2423.33 354.35V461H2378.78V349.85C2378.78 285.5 2417.03 235.1 2488.13 235.1C2560.13 235.1 2599.28 285.5 2599.28 349.4V461H2554.73V354.8C2554.73 313.4 2532.23 277.85 2488.13 277.85ZM2766.6 466.4C2699.55 466.4 2649.15 414.65 2649.15 351.2C2649.15 284.15 2697.75 235.1 2764.35 235.1C2794.05 235.1 2821.05 248.15 2839.05 267.95L2839.5 139.25H2884.05V351.2C2884.05 416.45 2833.2 466.4 2766.6 466.4ZM2766.6 424.55C2808 424.55 2839.5 391.25 2839.5 350.75C2839.5 310.7 2808 277.4 2766.6 277.4C2725.65 277.4 2693.7 310.7 2693.7 350.75C2693.7 391.25 2725.65 424.55 2766.6 424.55ZM3065.32 466.4C2998.72 466.4 2947.87 416.45 2947.87 351.2V139.25H2992.42V267.95C3010.42 248.15 3037.42 235.1 3067.12 235.1C3134.17 235.1 3182.32 284.15 3182.32 351.2C3182.32 414.65 3131.92 466.4 3065.32 466.4ZM3065.32 424.55C3106.27 424.55 3137.77 391.25 3137.77 350.75C3137.77 310.7 3106.27 277.4 3065.32 277.4C3023.92 277.4 2992.42 310.7 2992.42 350.75C2992.42 391.25 3023.92 424.55 3065.32 424.55ZM3336.58 466.4C3269.98 466.4 3218.68 414.2 3218.68 350.3C3218.68 286.85 3270.43 235.1 3336.58 235.1C3403.18 235.1 3453.58 287.3 3453.58 350.3C3453.58 414.2 3402.73 466.4 3336.58 466.4ZM3336.58 424.1C3377.53 424.1 3409.03 390.8 3409.03 350.75C3409.03 310.25 3377.53 276.95 3336.58 276.95C3295.18 276.95 3263.23 310.25 3263.23 350.75C3263.23 390.8 3295.18 424.1 3336.58 424.1ZM3541.29 461H3490.89L3546.69 377.3C3553.44 367.4 3556.59 358.85 3556.59 350.75C3556.59 343.1 3553.89 335.45 3547.59 326L3490.89 240.5H3541.29L3586.29 307.55C3590.79 314.3 3594.39 321.95 3596.19 329.6H3620.04C3622.29 321.95 3625.44 314.3 3629.94 307.55L3674.49 240.5H3725.34L3668.64 326C3662.34 335.45 3659.64 343.1 3659.64 350.75C3659.64 358.85 3662.79 367.4 3669.54 377.3L3725.34 461H3674.94L3629.94 394.4C3624.99 386.75 3621.39 378.65 3619.14 370.1H3597.09C3594.84 378.65 3591.24 386.75 3586.29 394.4L3541.29 461Z" fill="#A770EF"/>
</svg>
